<svg width="52" height="52" viewBox="0 0 52 52" fill="none" xmlns="http://www.w3.org/2000/svg">
<path d="M37.5699 11.8299C37.0557 11.8299 36.553 11.9824 36.1254 12.2681C35.6979 12.5538 35.3646 12.9599 35.1678 13.4349C34.971 13.91 34.9196 14.4328 35.0199 14.9372C35.1202 15.4415 35.3678 15.9048 35.7314 16.2684C36.0951 16.632 36.5583 16.8796 37.0627 16.98C37.567 17.0803 38.0898 17.0288 38.5649 16.832C39.04 16.6352 39.4461 16.302 39.7317 15.8744C40.0174 15.4468 40.1699 14.9441 40.1699 14.4299C40.1699 13.7404 39.896 13.079 39.4084 12.5914C38.9208 12.1038 38.2595 11.8299 37.5699 11.8299ZM47.5366 17.0733C47.4945 15.2756 47.1578 13.497 46.5399 11.8083C45.989 10.3634 45.1316 9.05502 44.0266 7.97325C42.9537 6.86267 41.6423 6.01063 40.1916 5.48159C38.5073 4.84493 36.7268 4.50054 34.9266 4.46325C32.6299 4.33325 31.8933 4.33325 25.9999 4.33325C20.1066 4.33325 19.3699 4.33325 17.0733 4.46325C15.2731 4.50054 13.4925 4.84493 11.8083 5.48159C10.3602 6.01599 9.04994 6.8673 7.97325 7.97325C6.86268 9.04614 6.01063 10.3575 5.48159 11.8083C4.84493 13.4925 4.50054 15.2731 4.46325 17.0733C4.33325 19.3699 4.33325 20.1066 4.33325 25.9999C4.33325 31.8933 4.33325 32.6299 4.46325 34.9266C4.50054 36.7268 4.84493 38.5073 5.48159 40.1916C6.01063 41.6423 6.86268 42.9537 7.97325 44.0266C9.04994 45.1325 10.3602 45.9838 11.8083 46.5183C13.4925 47.1549 15.2731 47.4993 17.0733 47.5366C19.3699 47.6666 20.1066 47.6666 25.9999 47.6666C31.8933 47.6666 32.6299 47.6666 34.9266 47.5366C36.7268 47.4993 38.5073 47.1549 40.1916 46.5183C41.6423 45.9892 42.9537 45.1372 44.0266 44.0266C45.1364 42.9488 45.9947 41.6393 46.5399 40.1916C47.1578 38.5029 47.4945 36.7243 47.5366 34.9266C47.5366 32.6299 47.6666 31.8933 47.6666 25.9999C47.6666 20.1066 47.6666 19.3699 47.5366 17.0733ZM43.6366 34.6666C43.6208 36.0419 43.3717 37.4046 42.8999 38.6966C42.554 39.6395 41.9983 40.4915 41.2749 41.1883C40.5722 41.9044 39.7219 42.4589 38.7833 42.8133C37.4913 43.2851 36.1286 43.5341 34.7533 43.5499C32.5866 43.6583 31.7849 43.6799 26.0866 43.6799C20.3883 43.6799 19.5866 43.6799 17.4199 43.5499C15.9918 43.5767 14.5699 43.3568 13.2166 42.8999C12.3191 42.5274 11.5079 41.9743 10.8333 41.2749C10.1141 40.5789 9.56541 39.7262 9.22992 38.7833C8.70094 37.4727 8.40755 36.0791 8.36325 34.6666C8.36325 32.4999 8.23325 31.6983 8.23325 25.9999C8.23325 20.3016 8.23325 19.4999 8.36325 17.3333C8.37296 15.9272 8.62964 14.5338 9.12159 13.2166C9.50302 12.3021 10.0885 11.4868 10.8333 10.8333C11.4915 10.0883 12.305 9.49663 13.2166 9.09992C14.5373 8.62335 15.9292 8.37426 17.3333 8.36325C19.4999 8.36325 20.3016 8.23325 25.9999 8.23325C31.6983 8.23325 32.4999 8.23325 34.6666 8.36325C36.0419 8.37903 37.4046 8.62812 38.6966 9.09992C39.6812 9.46533 40.5649 10.0594 41.2749 10.8333C41.9849 11.4988 42.5397 12.3125 42.8999 13.2166C43.3815 14.5359 43.6307 15.9288 43.6366 17.3333C43.7449 19.4999 43.7666 20.3016 43.7666 25.9999C43.7666 31.6983 43.7449 32.4999 43.6366 34.6666ZM25.9999 14.8849C23.8025 14.8892 21.6557 15.5447 19.8307 16.7687C18.0057 17.9926 16.5844 19.73 15.7465 21.7614C14.9085 23.7928 14.6915 26.0269 15.1228 28.1816C15.5541 30.3363 16.6144 32.3147 18.1698 33.867C19.7251 35.4193 21.7056 36.4758 23.8611 36.9029C26.0166 37.33 28.2504 37.1087 30.2801 36.2668C32.3098 35.4248 34.0445 34.0002 35.2649 32.1728C36.4852 30.3454 37.1366 28.1973 37.1366 25.9999C37.1395 24.5376 36.8532 23.0892 36.2943 21.738C35.7354 20.3867 34.9148 19.1593 33.8798 18.1264C32.8448 17.0934 31.6158 16.2752 30.2635 15.7189C28.9112 15.1626 27.4622 14.8792 25.9999 14.8849ZM25.9999 33.2149C24.5729 33.2149 23.178 32.7918 21.9915 31.999C20.805 31.2062 19.8802 30.0793 19.3341 28.761C18.788 27.4426 18.6452 25.9919 18.9236 24.5923C19.2019 23.1928 19.8891 21.9072 20.8981 20.8981C21.9072 19.8891 23.1928 19.2019 24.5923 18.9236C25.9919 18.6452 27.4426 18.788 28.761 19.3341C30.0794 19.8802 31.2062 20.805 31.999 21.9915C32.7918 23.178 33.2149 24.5729 33.2149 25.9999C33.2149 26.9474 33.0283 27.8856 32.6657 28.761C32.3031 29.6363 31.7717 30.4317 31.1017 31.1017C30.4317 31.7717 29.6363 32.3031 28.761 32.6657C27.8856 33.0283 26.9474 33.2149 25.9999 33.2149Z" fill="white"/>
</svg>
